<?xml version="1.0" encoding="UTF-8" standalone="no"?>
<!-- Created with Inkscape (http://www.inkscape.org/) -->

<svg
   xmlns:dc="http://purl.org/dc/elements/1.1/"
   xmlns:cc="http://creativecommons.org/ns#"
   xmlns:rdf="http://www.w3.org/1999/02/22-rdf-syntax-ns#"
   xmlns:svg="http://www.w3.org/2000/svg"
   xmlns="http://www.w3.org/2000/svg"
   xmlns:sodipodi="http://sodipodi.sourceforge.net/DTD/sodipodi-0.dtd"
   xmlns:inkscape="http://www.inkscape.org/namespaces/inkscape"
   version="1.1"
   width="453.25983"
   height="513.49603"
   id="svg2"
   xml:space="preserve"
   inkscape:version="0.48.2 r9819"
   sodipodi:docname="dokutitle.pdf"><metadata
     id="metadata15"><rdf:RDF><cc:Work
         rdf:about=""><dc:format>image/svg+xml</dc:format><dc:type
           rdf:resource="http://purl.org/dc/dcmitype/StillImage" /><dc:title></dc:title></cc:Work></rdf:RDF></metadata><sodipodi:namedview
     pagecolor="#ffffff"
     bordercolor="#666666"
     borderopacity="1"
     objecttolerance="10"
     gridtolerance="10"
     guidetolerance="10"
     inkscape:pageopacity="0"
     inkscape:pageshadow="2"
     inkscape:window-width="1920"
     inkscape:window-height="1009"
     id="namedview13"
     showgrid="false"
     inkscape:zoom="1.5774221"
     inkscape:cx="226.62991"
     inkscape:cy="256.74802"
     inkscape:window-x="-3"
     inkscape:window-y="-3"
     inkscape:window-maximized="1"
     inkscape:current-layer="svg2"
     units="mm" /><defs
     id="defs6"><marker
       refX="0"
       refY="0"
       orient="auto"
       id="Arrow2Lend"
       style="overflow:visible"><path
         d="M 8.7185878,4.0337352 -2.2072895,0.01601326 8.7185884,-4.0017078 c -1.7454984,2.3720609 -1.7354408,5.6174519 -6e-7,8.035443 z"
         transform="matrix(-1.1,0,0,-1.1,-1.1,0)"
         id="path3626"
         style="font-size:12px;fill-rule:evenodd;stroke-width:0.625;stroke-linejoin:round"
         inkscape:connector-curvature="0" /></marker><marker
       refX="0"
       refY="0"
       orient="auto"
       id="Arrow1Lend"
       style="overflow:visible"><path
         d="M 0,0 5,-5 -12.5,0 5,5 0,0 z"
         transform="matrix(-0.8,0,0,-0.8,-10,0)"
         id="path3608"
         style="fill-rule:evenodd;stroke:#000000;stroke-width:1pt;marker-start:none"
         inkscape:connector-curvature="0" /></marker></defs><g
     id="g3019"
     transform="translate(35.468285,-35.409665)"><path
       inkscape:connector-curvature="0"
       style="fill:none;stroke:#c8b7b7;stroke-width:2.49979997;stroke-linecap:butt;stroke-linejoin:bevel;stroke-miterlimit:1145.92004395;stroke-opacity:1;stroke-dasharray:2.4998, 7.4994;stroke-dashoffset:0"
       id="path16"
       d="m 220.10032,358.81923 1.5475,5.3512 -1.67625,4.9763 -0.9775,0.072 0,-6.25 -1.25,0 0,5 -4.95125,1.4025 -0.0488,-3.9038 -1.25,0 0,11.25 -3,-4.7837 -6.63375,9.2187 -1.61625,0.5663 -0.6875,-2.6875 c -0.4225,6.4825 5.49875,17.0162 8.4825,21.1425 2.98125,4.1225 23.6625,18.215 8.63125,11.2162 l 6.3325,6.2538 -2.75875,0.325 3.1075,4.295 c -1.05125,3.4062 6.1625,10.2275 11.8925,10.705 l -0.915,-6.315 0.84625,-3.7113 -8.5725,-5.1575 c 2.00875,-8.905 16.52625,-22.5062 17.39125,-33.5662 l 1.57125,-22.475 c 0.185,-6.5025 -2.85,-14.4513 -2.82125,-23.775 0.0263,-8.7488 0,-17.5013 0,-26.25 l -0.22875,-0.077 0,0 0.22875,0.077 -6.31375,0.915 0.0637,-3.4163 -2.5,0 c 1.8775,3.7863 0.86125,-1.4012 1.25,3.7513 l 0,16.25 c -3.38375,1.365 -5,6.7975 -5,11.25 0,0.3425 0.86125,2.2837 1.25,3.75 l -5.8,-6.6088 0.99,7.8163 c -4.61125,1.8262 -1.14125,-0.7913 -3.94,5.0425 l 1.1825,3.7762 -1.35875,3.6888 -2.2575,-1.3225 -0.21,2.2075 m -62.35625,0.4 c 3.05125,-3.51 6.11125,-7.3013 7.56625,-12.6075 l 2.43375,1.3575 c -0.38875,-7.7763 -0.93875,-17.0175 0.80375,-24.6863 l 0.04,-0.1725 c 0.48125,-2.075 1.09,-3.99 1.61625,-6.2762 l 7.54,2.0725 11.35625,0.3775 -1.2875,2.4087 1.18125,3.7763 0.26125,-0.3163 0,0 -2.61125,1.5888 -1.4,14.9775 c 0,12.0875 -5.725,13.615 -10,20 1.67375,3.375 0.86625,6.595 2.5,10 -0.835,1.5775 -2.5,4.1325 -2.5,6.25 0,5.4625 3.89,12.7037 7.21875,15.2812 6.875,5.3213 6.0425,4.8913 11.8125,10.6875 10.83875,10.8863 12.98125,10.185 20.5325,25.0975 l -3.31375,10.1838 c -8.35,5.5912 -0.7925,5.795 -13.5375,8.9625 -6.4575,1.605 -9.57,4.5762 -10.1875,12.0362 l 17.475,1.5013 c 6.78625,0.6812 8.185,-1.25 13.75,-1.25 4.06375,0 0.94375,-1.0838 6.58375,-2.5463 l -1.4075,-10.8762 6.07375,-2.8275 c 0.87375,10.4925 3.61875,15.9612 11.25,20 2.80375,-0.6538 2.87375,-1.25 6.25,-1.25 8.52125,0 4.265,-19.3013 3.75,-23.75 -0.28625,-2.44 -3.725,-6.8413 -5.7925,-7.9575 -10.24375,-5.535 -1.53875,-2.34 -7.9575,-7.0425 5.305,-10.0275 9.6625,-16.0288 14.98375,-25.0163 2.5625,-4.3275 17.51625,-19.7162 17.51625,-23.7337 l 0,-3.75 c 0,-3.52 -0.54,-2.315 -2.5,-3.75 0.90375,-1.6088 1.06125,-1.3013 0.88125,-3.7788 l 2.86875,-33.7212 c 0.18125,-1.545 8.03125,-17.88 9.35625,-19.395 4.83625,-5.5275 7.30625,-16.445 11.89375,-18.1063 0,10.54 -0.245,30.9475 7.5,33.75 l 0,11.25 c 0,2.99 6.02875,14.5575 7.43125,16.225 l -1.18125,3.7763 4.7675,0.089 2.0875,6.1687 -0.605,27.4925 c 0,7.5463 3.1975,11.3388 2.6225,17.5138 l -1.3725,14.9862 c -1.72,15.1988 -8.75,23.7838 -8.75,36.25 0,3.4538 -4.07,6.04 -6.03625,7.5363 l -1.46375,9.9637 c 4.195,1.0038 6.02875,2.0163 10.1925,-0.2137 l 4.8075,3.9637 c 2.95625,-1.4662 5.555,-1.25 8.75,-1.25 2.55375,0 8.75,-4.0512 8.75,-7.5 0,-3.8625 -3.75,-4.1425 -3.75,-8.75 0,-4.1487 2.5,-2.61 2.5,-5 0,-6.0712 -7.26375,-14.1625 -6.105,-26.2387 l 1.105,-17.5113 c 0.5425,-6.4662 2.33625,-3.935 2.5,-11.25 3.23875,-2.3737 3.1475,-2.3675 3.72875,-7.5025 l 1.27125,-13.7475 c 0.54625,-4.65 -3.165,-7.2587 -5,-10 1.31125,-5.63 4.63875,-14.94 3.77125,-22.5025 l -0.8275,-13.8612 -2.8125,-13.825 2.36875,-11.0613 0,-17.5 c 0,-7.4275 6.25,-13.8012 6.25,-21.25 l 1.31625,-6.3575 2.34,1.3038 2.36,-3.6075 1.48375,3.6612 c -1.91375,3.86 -1.8275,9.94 0,13.7488 -1.0175,4.37 -1.25,8.0487 -1.25,12.5012 l 2.5,0 0.2775,11.2913 -1.5275,11.2087 c -4.79875,1.2813 -6.36,3.8563 -7.43375,8.8563 l 2.8775,-1.1963 -2.94375,8.59 2.5,0 -1.25,20 2.5,0 c 0.18,-8.0737 3.86125,-10.4775 8.75,-13.75 0.29875,-13.3887 11.25,-15.5675 11.25,-25 l 0.0662,-6.3575 2.43375,1.3563 0,-3.7488 2.41625,0.028 -3.62625,-12 7.46,-0.5287 c -3.49375,-6.6013 -7.5,-6.835 -7.5,-16.2488 0,-2.7575 -0.65,-5.0087 -1.1,-7.6812 l 3.6,2.6812 c -1.4325,-6.1487 -0.53625,-9.23 -5,-12.5012 l 0,-4.9988 c -1.65625,-1.2137 -13.2725,-14.4512 -14.5,-16.75 -1.585,-2.9662 -10.82875,-20.0762 -11.75,-20.75 -0.25375,-11.3962 -9.93375,-29.1875 -15.9475,-35.3025 -3.385,-3.4425 -16.5525,-30.1575 -16.5525,-34.6987 l 0,-5 c 0,-10.9638 -12.78375,-19.2075 -17.5,-26.2488 -2.05625,0 -3.93125,-0.024 -5.9725,-0.2787 l -5.3675,-4.955 -3.66,1.4825 c -1.4075,-5.8788 -2.53625,-3.0463 -6.25,-1.5613 -4.07875,0.2038 -8.44875,-0.016 -12.35625,1.1688 l -7.64375,-2.1063 0,2.4988 -2.2275,0.072 -1.5225,4.9287 c -5.32375,-2.9912 -12.435,-0.1587 -17.4875,2.44 l -7.44375,-1.2162 1.32,3.9625 -18.82,13.5375 1.18125,3.7762 -3.4375,0.049 -1.5625,9.9512 0.58125,0 0.004,0.2038 c -4.96375,1.0937 -7.00375,6.4037 -10.07375,10.3075 -3.1025,3.945 -6.52125,5.1912 -10.035,8.7137 -3.31875,3.3263 -7.14875,5.3775 -11.555,7.195 -6.36875,2.6275 -8.2425,6.1788 -11.42125,7.33 l -0.61375,2.6725 -0.0388,0.044 -3.0975,1.0325 0,3.75 c -3.0875,0.825 -15,18.0425 -15,21.2513 0,4.2437 -0.17,11.8 -5,13.7487 l 0,6.25 -4.93125,-0.036 -2.45125,-4.9425 3.6325,-22.52 2.5,0 0,4.9988 0.91625,-0.045 1.58375,-11.205 2.5,0 0,3.7512 1.25,0 0,-10.0012 c 0,-4.7788 0.38375,-0.4538 -1.25,-3.7488 2.36125,-3.4 2.02625,-3.6837 2.59375,-8.7425 l 1.15625,-16.2587 c 0.475,-5.0788 -0.3525,-3 -1.25,-3.7488 l -0.6275,0.53 0,0 0.6275,-0.53 c -2.4775,-4.6837 -1.97375,-7.275 -7.5,-8.75 0.41375,-4.9662 1.25,-3.0112 1.25,-6.25 0,-4.56 -1.12125,-2.9787 -1.25,-8.7512 -6.9925,-1.6288 -13.6525,-13.7488 -18.75,-13.7488 l -3.9825,-0.09 1.47125,-3.705 -5.875,1.0325 -2.86375,-4.7375 c -4.50625,1.2025 -3.3425,0.1138 -4.02,5.4325 l -4.73,-2.9325 -0.16,3.305 -8.75625,2.94 0.07625,7.2713 c -3.5375,1.4325 -5.01625,1.6912 -8.71625,1.0187 l -26.19375,2.9638 c -4.5275,0.5537 -16.25,16.3637 -16.25,17.5 0,3.5212 0.54125,2.315 2.5,3.7512 l 0,5 c 2.97,1.57 8.515,5 12.5,5 l 7.5,0 c 2.85875,0 9.71,5.1988 11.51125,7.6525 l -9.01125,13.5963 -0.825,4.5312 -7.85875,15.5763 2.43375,-1.3563 c 0,3.625 0.35375,6.6563 -1.25,10 1.815,3.23 1.60875,5.6163 -0.2325,8.8388 l 1.63625,3.7087 -1.3375,5.0588 3.0275,-1.2013 -2.78125,9.8438 2.2775,18.9837 3.66,-1.4837 0,5 c 2.46375,-1.1388 5,-2.0138 5,2.5012 l 0.06625,8.8563 2.43375,-1.3563 0,3.75 2.5,0 0,-3.75 c 2.785,0.7438 3.75,0.2913 3.75,3.75 l 0.06625,3.8563 2.715,-1.3025 -1.26125,11.6287 4.185,-2.2912 4.26875,3.04 3.77625,-1.1813 0.15125,7.6813 3.59875,-2.6813 0,-2.5 1.36,-1.3775 0,0 -1.36,1.3775 c 3.85875,0 -2.5,8.7075 -2.5,11.25 0,3.52 0.54125,2.3138 2.5,3.7488 0.46,-5.5125 0.54625,-7.56 4.11625,-8.2313 l 5.895,9.4988 8.69375,-5.005 1.295,6.2387 c 6.73,0.5588 3.6625,2.5 6.25,2.5 1.60625,0 5.16125,-4.9975 6.25,-6.25 l 0,6.25 2.5,0 0.09,-2.7337 3.16125,0.9912 6.74875,-7.0075 -0.15875,-0.04 0,0 0.15875,0.04 1.0425,-1.4587 0.2075,3.9587 3.32125,-4.065 c 1.87875,3.3375 2.92875,5.7825 2.92875,10.315 0,5.47 -2.535,4.5638 -2.5,10 l -0.33,20.0013 c 0.36,4.6612 -0.4925,2.3687 -0.92,7.4987 l 2.43375,-1.3575 -1.5175,11.3113 2.83375,0.046 c -0.12875,5.7712 -1.25,4.19 -1.25,8.75 0,2.9237 -0.37375,3.2337 -1.25,5 l 3.10875,4.295 -0.89625,15.6737 c -0.305,5.565 2.7875,7.195 2.7875,12.5313 0,11.605 -3.93375,27.6762 -7.90125,35.8487 -2.7275,5.6175 -5.50875,8.5538 -7.585,13.665 -2.205,5.4288 -3.56625,10.4863 -10.76375,10.4863 -5.25,0 -11.58875,4.2712 -13.75,7.5 l 1.48375,3.66 c 7.5075,0.7337 3.92875,5.09 12.26625,5.09 l 10,0 c 8.4175,0 10.235,-2.3488 16.25,-3.75 l -1.27875,-9.9963 c 1.9625,-2.8875 5.5325,-5.1075 2.52875,-8.7537 l -4.9625,2.5675 -2.475,-1.505 -2.7375,-8.505 2.425,-2.8075 1.76125,-6.3125 1.67625,3 3.36375,-11.3538 0.94875,-0.084 0,11.25 1.25,0 0,-5 1.25,0 0,8.75 1.25,0 0,-5 c 0,-9.7562 5,-15.225 5,-17.5 l 0,-7.5 c 0,-11.28 10,-17.0712 10,-32.5 0,-4.8225 -1.25,-2.7975 -1.25,-8.75 0,-4.3437 2.5,-1.9087 2.5,-6.25 l 0,-8.7512 2.5,0 0,-6.2488" /><path
       style="font-size:medium;font-style:normal;font-variant:normal;font-weight:normal;font-stretch:normal;text-indent:0;text-align:start;text-decoration:none;line-height:normal;letter-spacing:normal;word-spacing:normal;text-transform:none;direction:ltr;block-progression:tb;writing-mode:lr-tb;text-anchor:start;baseline-shift:baseline;color:#000000;fill:#c8b7b7;fill-opacity:1;stroke:none;stroke-width:1.5;marker:none;visibility:visible;display:inline;overflow:visible;enable-background:accumulate;font-family:Sans;-inkscape-font-specification:Sans"
       d="m 5.84375,72.872133 0,433.968797 1.5,0 0,-433.968797 -1.5,0 z"
       id="path18"
       inkscape:connector-curvature="0" /><path
       style="font-size:12px;fill:#c8b7b7;fill-rule:evenodd;stroke-width:0.625;stroke-linejoin:round"
       id="path3005"
       d="M -0.05284308,88.899834 6.5763981,70.872133 13.205638,88.899834 c -3.9139006,-2.88 -9.2687958,-2.8634 -13.25848108,0 z"
       inkscape:connector-curvature="0" /><path
       style="font-size:medium;font-style:normal;font-variant:normal;font-weight:normal;font-stretch:normal;text-indent:0;text-align:start;text-decoration:none;line-height:normal;letter-spacing:normal;word-spacing:normal;text-transform:none;direction:ltr;block-progression:tb;writing-mode:lr-tb;text-anchor:start;baseline-shift:baseline;color:#000000;fill:#c8b7b7;fill-opacity:1;stroke:none;stroke-width:1.5;marker:none;visibility:visible;display:inline;overflow:visible;enable-background:accumulate;font-family:Sans;-inkscape-font-specification:Sans"
       d="m 6.59375,506.09093 0,1.5 373.78125,0 0,-1.5 -373.78125,0 z"
       id="path22"
       inkscape:connector-curvature="0" /><path
       style="font-size:12px;fill:#c8b7b7;fill-rule:evenodd;stroke-width:0.625;stroke-linejoin:round"
       id="path3015"
       d="m 364.3484,500.18483 18.0277,6.6292 -18.0277,6.6292 c 2.88007,-3.9139 2.86348,-9.2688 0,-13.2584 z"
       inkscape:connector-curvature="0" /></g></svg>