<?xml version="1.0" encoding="UTF-8" standalone="no"?>
<!-- Created with Inkscape (http://www.inkscape.org/) -->

<svg
   xmlns:svg="http://www.w3.org/2000/svg"
   xmlns="http://www.w3.org/2000/svg"
   version="1.1"
   width="382.3761"
   height="442.62393"
   id="svg2"
   xml:space="preserve"><defs
     id="defs6"><marker
       refX="0"
       refY="0"
       orient="auto"
       id="Arrow2Lend"
       style="overflow:visible"><path
         d="M 8.7185878,4.0337352 -2.2072895,0.01601326 8.7185884,-4.0017078 c -1.7454984,2.3720609 -1.7354408,5.6174519 -6e-7,8.035443 z"
         transform="matrix(-1.1,0,0,-1.1,-1.1,0)"
         id="path3626"
         style="font-size:12px;fill-rule:evenodd;stroke-width:0.625;stroke-linejoin:round" /></marker><marker
       refX="0"
       refY="0"
       orient="auto"
       id="Arrow1Lend"
       style="overflow:visible"><path
         d="M 0,0 5,-5 -12.5,0 5,5 0,0 z"
         transform="matrix(-0.8,0,0,-0.8,-10,0)"
         id="path3608"
         style="fill-rule:evenodd;stroke:#000000;stroke-width:1pt;marker-start:none" /></marker></defs><g
     transform="matrix(1.25,0,0,-1.25,-102.83218,808.02578)"
     id="g12"><g
       transform="scale(0.1,0.1)"
       id="g14"><path
         d="m 2583.46,4160.63 12.38,-42.81 -13.41,-39.81 -7.82,-0.58 0,50 -10,0 0,-40 -39.61,-11.22 -0.39,31.23 -10,0 0,-90 -24,38.27 -53.07,-73.75 -12.93,-4.53 -5.5,21.5 c -3.38,-51.86 43.99,-136.13 67.86,-169.14 23.85,-32.98 189.3,-145.72 69.05,-89.73 l 50.66,-50.03 -22.07,-2.6 24.86,-34.36 c -8.41,-27.25 49.3,-81.82 95.14,-85.64 l -7.32,50.52 6.77,29.69 -68.58,41.26 c 16.07,71.24 132.21,180.05 139.13,268.53 l 12.57,179.8 c 1.48,52.02 -22.8,115.61 -22.57,190.2 0.21,69.99 0,140.01 0,210 l -1.83,0.62 0,0 1.83,-0.62 -50.51,-7.32 0.51,27.33 -20,0 c 15.02,-30.29 6.89,11.21 10,-30.01 l 0,-130 c -27.07,-10.92 -40,-54.38 -40,-90 0,-2.74 6.89,-18.27 10,-30 l -46.4,52.87 7.92,-62.53 c -36.89,-14.61 -9.13,6.33 -31.52,-40.34 l 9.46,-30.21 -10.87,-29.51 -18.06,10.58 -1.68,-17.66 m -498.85,-3.2 c 24.41,28.08 48.89,58.41 60.53,100.86 l 19.47,-10.86 c -3.11,62.21 -7.51,136.14 6.43,197.49 l 0.32,1.38 c 3.85,16.6 8.72,31.92 12.93,50.21 l 60.32,-16.58 90.85,-3.02 -10.3,-19.27 9.45,-30.21 2.09,2.53 0,0 -20.89,-12.71 -11.2,-119.82 c 0,-96.7 -45.8,-108.92 -80,-160 13.39,-27 6.93,-52.76 20,-80 -6.68,-12.62 -20,-33.06 -20,-50 0,-43.7 31.12,-101.63 57.75,-122.25 55,-42.57 48.34,-39.13 94.5,-85.5 86.71,-87.09 103.85,-81.48 164.26,-200.78 l -26.51,-81.47 c -66.8,-44.73 -6.34,-46.36 -108.3,-71.7 -51.66,-12.84 -76.56,-36.61 -81.5,-96.29 l 139.8,-12.01 c 54.29,-5.45 65.48,10 110,10 32.51,0 7.55,8.67 52.67,20.37 l -11.26,87.01 48.59,22.62 c 6.99,-83.94 28.95,-127.69 90,-160 22.43,5.23 22.99,10 50,10 68.17,0 34.12,154.41 30,190 -2.29,19.52 -29.8,54.73 -46.34,63.66 -81.95,44.28 -12.31,18.72 -63.66,56.34 42.44,80.22 77.3,128.23 119.87,200.13 20.5,34.62 140.13,157.73 140.13,189.87 l 0,30 c 0,28.16 -4.32,18.52 -20,30 7.23,12.87 8.49,10.41 7.05,30.23 l 22.95,269.77 c 1.45,12.36 64.25,143.04 74.85,155.16 38.69,44.22 58.45,131.56 95.15,144.85 0,-84.32 -1.96,-247.58 60,-270 l 0,-90 c 0,-23.92 48.23,-116.46 59.45,-129.8 l -9.45,-30.21 38.14,-0.71 16.7,-49.35 -4.84,-219.94 c 0,-60.37 25.58,-90.71 20.98,-140.11 l -10.98,-119.89 c -13.76,-121.59 -70,-190.27 -70,-290 0,-27.63 -32.56,-48.32 -48.29,-60.29 l -11.71,-79.71 c 33.56,-8.03 48.23,-16.13 81.54,1.71 l 38.46,-31.71 c 23.65,11.73 44.44,10 70,10 20.43,0 70,32.41 70,60 0,30.9 -30,33.14 -30,70 0,33.19 20,20.88 20,40 0,48.57 -58.11,113.3 -48.84,209.91 l 8.84,140.09 c 4.34,51.73 18.69,31.48 20,90 25.91,18.99 25.18,18.94 29.83,60.02 l 10.17,109.98 c 4.37,37.2 -25.32,58.07 -40,80 10.49,45.04 37.11,119.52 30.17,180.02 l -6.62,110.89 -22.5,110.6 18.95,88.49 0,140 c 0,59.42 50,110.41 50,170 l 10.53,50.86 18.72,-10.43 18.88,28.86 11.87,-29.29 c -15.31,-30.88 -14.62,-79.52 0,-109.99 -8.14,-34.96 -10,-64.39 -10,-100.01 l 20,0 2.22,-90.33 -12.22,-89.67 c -38.39,-10.25 -50.88,-30.85 -59.47,-70.85 l 23.02,9.57 -23.55,-68.72 20,0 -10,-160 20,0 c 1.44,64.59 30.89,83.82 70,110 2.39,107.11 90,124.54 90,200 l 0.53,50.86 19.47,-10.85 0,29.99 19.33,-0.22 -29.01,96 59.68,4.23 c -27.95,52.81 -60,54.68 -60,129.99 0,22.06 -5.2,40.07 -8.8,61.45 l 28.8,-21.45 c -11.46,49.19 -4.29,73.84 -40,100.01 l 0,39.99 c -13.25,9.71 -106.18,115.61 -116,134 -12.68,23.73 -86.63,160.61 -94,166 -2.03,91.17 -79.47,233.5 -127.58,282.42 -27.08,27.54 -132.42,241.26 -132.42,277.59 l 0,40 c 0,87.71 -102.27,153.66 -140,209.99 -16.45,0 -31.45,0.19 -47.78,2.23 l -42.94,39.64 -29.28,-11.86 c -11.26,47.03 -20.29,24.37 -50,12.49 -32.63,-1.63 -67.59,0.13 -98.85,-9.35 l -61.15,16.85 0,-19.99 -17.82,-0.58 -12.18,-39.43 c -42.59,23.93 -99.48,1.27 -139.9,-19.52 l -59.55,9.73 10.56,-31.7 -150.56,-108.3 9.45,-30.21 -27.5,-0.39 -12.5,-79.61 4.65,0 0.03,-1.63 c -39.71,-8.75 -56.03,-51.23 -80.59,-82.46 -24.82,-31.56 -52.17,-41.53 -80.28,-69.71 -26.55,-26.61 -57.19,-43.02 -92.44,-57.56 -50.95,-21.02 -65.94,-49.43 -91.37,-58.64 l -4.91,-21.38 -0.31,-0.35 -24.78,-8.26 0,-30 c -24.7,-6.6 -120,-144.34 -120,-170.01 0,-33.95 -1.36,-94.4 -40,-109.99 l 0,-50 -39.45,0.29 -19.61,39.54 29.06,180.16 20,0 0,-39.99 7.33,0.36 12.67,89.64 20,0 0,-30.01 10,0 0,80.01 c 0,38.23 3.07,3.63 -10,29.99 18.89,27.2 16.21,29.47 20.75,69.94 l 9.25,130.07 c 3.8,40.63 -2.82,24 -10,29.99 l -5.02,-4.24 0,0 5.02,4.24 c -19.82,37.47 -15.79,58.2 -60,70 3.31,39.73 10,24.09 10,50 0,36.48 -8.97,23.83 -10,70.01 -55.94,13.03 -109.22,109.99 -150,109.99 l -31.86,0.72 11.77,29.64 -47,-8.26 -22.91,37.9 c -36.05,-9.62 -26.74,-0.91 -32.16,-43.46 l -37.84,23.46 -1.28,-26.44 -70.05,-23.52 0.61,-58.17 c -28.3,-11.46 -40.13,-13.53 -69.73,-8.15 l -209.55,-23.71 c -36.22,-4.43 -130,-130.91 -130,-140 0,-28.17 4.33,-18.52 20,-30.01 l 0,-40 c 23.76,-12.56 68.12,-40 100,-40 l 60,0 c 22.87,0 77.68,-41.59 92.09,-61.22 l -72.09,-108.77 -6.6,-36.25 -62.87,-124.61 19.47,10.85 c 0,-29 2.83,-53.25 -10,-80 14.52,-25.84 12.87,-44.93 -1.86,-70.71 l 13.09,-29.67 -10.7,-40.47 24.22,9.61 -22.25,-78.75 18.22,-151.87 29.28,11.87 0,-40 c 19.71,9.11 40,16.11 40,-20.01 l 0.53,-70.85 19.47,10.85 0,-30 20,0 0,30 c 22.28,-5.95 30,-2.33 30,-30 l 0.53,-30.85 21.72,10.42 -10.09,-93.03 33.48,18.33 34.15,-24.32 30.21,9.45 1.21,-61.45 28.79,21.45 0,20 10.88,11.02 0,0 -10.88,-11.02 c 30.87,0 -20,-69.66 -20,-90 0,-28.16 4.33,-18.51 20,-29.99 3.68,44.1 4.37,60.48 32.93,65.85 l 47.16,-75.99 69.55,40.04 10.36,-49.91 c 53.84,-4.47 29.3,-20 50,-20 12.85,0 41.29,39.98 50,50 l 0,-50 20,0 0.72,21.87 25.29,-7.93 53.99,56.06 -1.27,0.32 0,0 1.27,-0.32 8.34,11.67 1.66,-31.67 26.57,32.52 c 15.03,-26.7 23.43,-46.26 23.43,-82.52 0,-43.76 -20.28,-36.51 -20,-80 l -2.64,-160.01 c 2.88,-37.29 -3.94,-18.95 -7.36,-59.99 l 19.47,10.86 -12.14,-90.49 22.67,-0.37 c -1.03,-46.17 -10,-33.52 -10,-70 0,-23.39 -2.99,-25.87 -10,-40 l 24.87,-34.36 -7.17,-125.39 c -2.44,-44.52 22.3,-57.56 22.3,-100.25 0,-92.84 -31.47,-221.41 -63.21,-286.79 -21.82,-44.94 -44.07,-68.43 -60.68,-109.32 -17.64,-43.43 -28.53,-83.89 -86.11,-83.89 -42,0 -92.71,-34.17 -110,-60 l 11.87,-29.28 c 60.06,-5.87 31.43,-40.72 98.13,-40.72 l 80,0 c 67.34,0 81.88,18.79 130,30 l -10.23,79.97 c 15.7,23.1 44.26,40.86 20.23,70.03 l -39.7,-20.54 -19.8,12.04 -21.9,68.04 19.4,22.46 14.09,50.5 13.41,-24 26.91,90.83 7.59,0.67 0,-90 10,0 0,40 10,0 0,-70 10,0 0,40 c 0,78.05 40,121.8 40,140 l 0,60 c 0,90.24 80,136.57 80,260 0,38.58 -10,22.38 -10,70 0,34.75 20,15.27 20,50 l 0,70.01 20,0 0,49.99"
         id="path16"
         style="fill:none;stroke:#231f20;stroke-width:19.99839973;stroke-linecap:butt;stroke-linejoin:bevel;stroke-miterlimit:1145.92004395;stroke-opacity:1;stroke-dasharray:19.9984, 59.9952;stroke-dashoffset:0" /><path
         d="m 875.48,2976.46 0,3471.81"
         id="path18"
         style="fill:none;stroke:#231f20;stroke-width:12;stroke-linecap:butt;stroke-linejoin:miter;stroke-miterlimit:0.73000002;stroke-opacity:1;stroke-dasharray:none;marker-end:url(#Arrow2Lend)" /><path
         d="m 875.48,2976.46 2990.25,0"
         id="path22"
         style="fill:none;stroke:#231f20;stroke-width:12;stroke-linecap:butt;stroke-linejoin:miter;stroke-miterlimit:22.92560005;stroke-opacity:1;stroke-dasharray:none;marker-end:url(#Arrow2Lend)" /></g></g></svg>